<svg width="39" height="39" viewBox="0 0 39 39" fill="none" xmlns="http://www.w3.org/2000/svg">
<path d="M19.5 2.4375C15.9457 2.44169 12.5382 3.85548 10.025 6.36873C7.51174 8.88198 6.09796 12.2895 6.09376 15.8438C6.08951 18.7483 7.03827 21.574 8.79451 23.8875C8.79451 23.8875 9.16014 24.3689 9.21986 24.4384L19.5 36.5625L29.785 24.4323C29.8387 24.3677 30.2055 23.8875 30.2055 23.8875L30.2067 23.8838C31.9621 21.5714 32.9104 18.747 32.9063 15.8438C32.9021 12.2895 31.4883 8.88198 28.975 6.36873C26.4618 3.85548 23.0543 2.44169 19.5 2.4375ZM19.5 20.7188C18.5358 20.7188 17.5933 20.4328 16.7916 19.8972C15.9899 19.3615 15.3651 18.6001 14.9961 17.7093C14.6271 16.8185 14.5306 15.8383 14.7187 14.8927C14.9068 13.947 15.3711 13.0784 16.0529 12.3966C16.7346 11.7148 17.6033 11.2505 18.5489 11.0624C19.4946 10.8743 20.4748 10.9709 21.3656 11.3398C22.2564 11.7088 23.0178 12.3337 23.5534 13.1353C24.0891 13.937 24.375 14.8796 24.375 15.8438C24.3734 17.1362 23.8593 18.3752 22.9454 19.2891C22.0315 20.203 20.7924 20.7171 19.5 20.7188Z" fill="white"/>
</svg>
